<svg width="16" height="16" viewBox="0 0 16 16" fill="none" xmlns="http://www.w3.org/2000/svg">
<g clip-path="url(#clip0_307_2)">
<path fill-rule="evenodd" clip-rule="evenodd" d="M1.5 2.75C1.5 2.6837 1.52634 2.62011 1.57322 2.57322C1.62011 2.52634 1.6837 2.5 1.75 2.5H14.25C14.3163 2.5 14.3799 2.52634 14.4268 2.57322C14.4737 2.62011 14.5 2.6837 14.5 2.75V11.25C14.5 11.3163 14.4737 11.3799 14.4268 11.4268C14.3799 11.4737 14.3163 11.5 14.25 11.5H7.75C7.55115 11.5002 7.36052 11.5793 7.22 11.72L4.5 14.44V12.25C4.5 12.0511 4.42098 11.8603 4.28033 11.7197C4.13968 11.579 3.94891 11.5 3.75 11.5H1.75C1.6837 11.5 1.62011 11.4737 1.57322 11.4268C1.52634 11.3799 1.5 11.3163 1.5 11.25V2.75ZM1.75 1C1.28587 1 0.840752 1.18437 0.512563 1.51256C0.184374 1.84075 0 2.28587 0 2.75L0 11.25C0 12.216 0.784 13 1.75 13H3V14.543C3.0001 14.8311 3.08561 15.1127 3.24571 15.3522C3.40581 15.5917 3.63333 15.7784 3.8995 15.8886C4.16567 15.9988 4.45854 16.0277 4.74111 15.9715C5.02367 15.9153 5.28324 15.7767 5.487 15.573L8.061 13H14.25C14.7141 13 15.1592 12.8156 15.4874 12.4874C15.8156 12.1592 16 11.7141 16 11.25V2.75C16 2.28587 15.8156 1.84075 15.4874 1.51256C15.1592 1.18437 14.7141 1 14.25 1H1.75ZM6.78 4.47C6.92045 4.61063 6.99934 4.80125 6.99934 5C6.99934 5.19875 6.92045 5.38937 6.78 5.53L5.31 7L6.78 8.47C6.91248 8.61218 6.9846 8.80022 6.98117 8.99452C6.97775 9.18882 6.89903 9.37421 6.76162 9.51162C6.62421 9.64903 6.43882 9.72775 6.24452 9.73118C6.05022 9.7346 5.86217 9.66248 5.72 9.53L3.72 7.53C3.57955 7.38937 3.50066 7.19875 3.50066 7C3.50066 6.80125 3.57955 6.61063 3.72 6.47L5.72 4.47C5.86063 4.32955 6.05125 4.25066 6.25 4.25066C6.44875 4.25066 6.63937 4.32955 6.78 4.47V4.47ZM9.22 4.47C9.07955 4.61063 9.00066 4.80125 9.00066 5C9.00066 5.19875 9.07955 5.38937 9.22 5.53L10.69 7L9.22 8.47C9.08752 8.61218 9.0154 8.80022 9.01882 8.99452C9.02225 9.18882 9.10097 9.37421 9.23838 9.51162C9.37579 9.64903 9.56118 9.72775 9.75548 9.73118C9.94978 9.7346 10.1378 9.66248 10.28 9.53L12.28 7.53C12.4205 7.38937 12.4993 7.19875 12.4993 7C12.4993 6.80125 12.4205 6.61063 12.28 6.47L10.28 4.47C10.1394 4.32955 9.94875 4.25066 9.75 4.25066C9.55125 4.25066 9.36063 4.32955 9.22 4.47V4.47Z" fill="white"/>
</g>
<defs>
<clipPath id="clip0_307_2">
<rect width="16" height="16" fill="white"/>
</clipPath>
</defs>
</svg>
